<svg xmlns="http://www.w3.org/2000/svg" xmlns:xlink="http://www.w3.org/1999/xlink" version="1.1" width="256" height="256" viewBox="0 0 256 256" xml:space="preserve">

<defs>
</defs>
<g style="stroke: none; stroke-width: 0; stroke-dasharray: none; stroke-linecap: butt; stroke-linejoin: miter; stroke-miterlimit: 10; fill: none; fill-rule: nonzero; opacity: 1;" transform="translate(45.02412451361867 45.024124513618645) scale(1.83 1.83)" >
	<polygon points="90,9.27 84.42,66.21 55.13,66.21 42.37,80.73 42.37,66.21 33.85,66.21 33.85,16.44 " style="stroke: none; stroke-width: 1; stroke-dasharray: none; stroke-linecap: butt; stroke-linejoin: miter; stroke-miterlimit: 10; fill: rgb(238,96,85); fill-rule: nonzero; opacity: 1;" transform="  matrix(1 0 0 1 0 0) "/>
	<path d="M 56.191 49.62 c -0.335 0 -0.673 -0.082 -0.987 -0.255 c -0.989 -0.546 -1.348 -1.791 -0.802 -2.78 l 1.996 -3.613 c 0.273 -0.493 0.735 -0.851 1.28 -0.992 l 8.82 -2.272 c 1.72 -0.523 3.215 -1.733 4.126 -3.383 l 0.119 -0.215 c 0.946 -1.713 1.155 -3.688 0.588 -5.562 c -0.566 -1.873 -1.837 -3.401 -3.577 -4.305 c -3.427 -1.779 -7.783 -0.392 -9.708 3.093 c -0.546 0.989 -1.79 1.348 -2.78 0.802 c -0.989 -0.546 -1.348 -1.79 -0.802 -2.779 c 2.989 -5.409 9.793 -7.538 15.175 -4.746 c 2.727 1.416 4.718 3.813 5.607 6.751 c 0.889 2.939 0.56 6.037 -0.923 8.724 l -0.119 0.215 c -1.429 2.588 -3.774 4.485 -6.603 5.344 l -8.05 2.075 l -1.569 2.841 C 57.61 49.239 56.912 49.62 56.191 49.62 z" style="stroke: none; stroke-width: 1; stroke-dasharray: none; stroke-linecap: butt; stroke-linejoin: miter; stroke-miterlimit: 10; fill: rgb(241,245,242); fill-rule: nonzero; opacity: 1;" transform=" matrix(1 0 0 1 0 0) " stroke-linecap="round" />
	<polygon points="0,37.64 3.36,71.97 21.02,71.97 28.72,80.73 28.72,71.97 33.85,71.97 33.85,41.96 " style="stroke: none; stroke-width: 1; stroke-dasharray: none; stroke-linecap: butt; stroke-linejoin: miter; stroke-miterlimit: 10; fill: rgb(0,128,0); fill-rule: nonzero; opacity: 1;" transform="  matrix(1 0 0 1 0 0) "/>
	<path d="M 51.515 58.264 c -0.195 0 -0.4 -0.02 -0.593 -0.061 c -0.195 -0.041 -0.389 -0.093 -0.573 -0.174 c -0.184 -0.072 -0.368 -0.164 -0.531 -0.277 c -0.174 -0.113 -0.328 -0.246 -0.47 -0.389 c -0.144 -0.133 -0.266 -0.297 -0.379 -0.46 c -0.113 -0.164 -0.205 -0.348 -0.287 -0.531 c -0.071 -0.185 -0.133 -0.379 -0.174 -0.573 c -0.041 -0.194 -0.061 -0.399 -0.061 -0.603 c 0 -0.194 0.02 -0.399 0.061 -0.593 c 0.041 -0.194 0.103 -0.389 0.174 -0.572 c 0.082 -0.185 0.174 -0.369 0.287 -0.532 c 0.113 -0.174 0.235 -0.327 0.379 -0.47 c 0.716 -0.705 1.769 -1.033 2.772 -0.838 c 0.194 0.04 0.389 0.102 0.572 0.174 c 0.185 0.082 0.369 0.174 0.532 0.286 c 0.164 0.113 0.327 0.236 0.47 0.379 c 0.562 0.573 0.89 1.36 0.89 2.168 c 0 0.205 -0.021 0.409 -0.062 0.603 c -0.03 0.195 -0.092 0.389 -0.174 0.573 c -0.072 0.184 -0.164 0.368 -0.276 0.531 c -0.113 0.164 -0.246 0.328 -0.389 0.46 c -0.134 0.143 -0.297 0.276 -0.46 0.389 c -0.164 0.113 -0.348 0.205 -0.532 0.277 c -0.184 0.081 -0.379 0.133 -0.572 0.174 C 51.923 58.245 51.719 58.264 51.515 58.264 z" style="stroke: none; stroke-width: 1; stroke-dasharray: none; stroke-linecap: butt; stroke-linejoin: miter; stroke-miterlimit: 10; fill: rgb(241,245,242); fill-rule: nonzero; opacity: 1;" transform=" matrix(1 0 0 1 0 0) " stroke-linecap="round" />
	<path d="M 12.334 59.727 c -0.808 0 -1.596 -0.327 -2.168 -0.9 c -0.573 -0.572 -0.9 -1.36 -0.9 -2.168 c 0 -0.204 0.02 -0.399 0.061 -0.603 c 0.041 -0.194 0.102 -0.389 0.174 -0.572 c 0.081 -0.185 0.174 -0.359 0.286 -0.532 c 0.112 -0.164 0.235 -0.317 0.379 -0.459 c 1.146 -1.146 3.191 -1.146 4.336 0 c 0.143 0.143 0.276 0.296 0.389 0.459 c 0.102 0.174 0.204 0.348 0.276 0.532 c 0.082 0.184 0.133 0.379 0.174 0.572 c 0.041 0.205 0.061 0.4 0.061 0.603 c 0 0.808 -0.328 1.596 -0.9 2.168 C 13.929 59.4 13.142 59.727 12.334 59.727 z" style="stroke: none; stroke-width: 1; stroke-dasharray: none; stroke-linecap: butt; stroke-linejoin: miter; stroke-miterlimit: 10; fill: rgb(241,245,242); fill-rule: nonzero; opacity: 1;" transform=" matrix(1 0 0 1 0 0) " stroke-linecap="round" />
	<path d="M 23.338 59.727 c -0.808 0 -1.596 -0.327 -2.168 -0.9 c -0.573 -0.572 -0.9 -1.36 -0.9 -2.168 c 0 -0.204 0.02 -0.399 0.061 -0.603 c 0.041 -0.194 0.102 -0.389 0.174 -0.572 c 0.082 -0.185 0.174 -0.359 0.286 -0.532 c 0.113 -0.164 0.236 -0.317 0.379 -0.459 c 0.716 -0.716 1.769 -1.044 2.772 -0.839 c 0.194 0.041 0.389 0.092 0.573 0.174 c 0.184 0.072 0.368 0.174 0.532 0.276 c 0.164 0.113 0.328 0.246 0.46 0.39 c 0.143 0.143 0.276 0.296 0.389 0.459 c 0.112 0.174 0.205 0.348 0.276 0.532 c 0.082 0.184 0.143 0.379 0.174 0.572 c 0.041 0.205 0.061 0.4 0.061 0.603 c 0 0.808 -0.327 1.596 -0.9 2.168 C 24.934 59.4 24.146 59.727 23.338 59.727 z" style="stroke: none; stroke-width: 1; stroke-dasharray: none; stroke-linecap: butt; stroke-linejoin: miter; stroke-miterlimit: 10; fill: rgb(241,245,242); fill-rule: nonzero; opacity: 1;" transform=" matrix(1 0 0 1 0 0) " stroke-linecap="round" />
</g>
</svg>